<mxfile host="Electron" modified="2023-04-26T14:11:05.419Z" agent="Mozilla/5.0 (Windows NT 10.0; Win64; x64) AppleWebKit/537.36 (KHTML, like Gecko) draw.io/21.1.2 Chrome/106.0.5249.199 Electron/21.4.3 Safari/537.36" etag="eG1D-PSx7MncKhlzJu8o" version="21.1.2" type="device">
  <diagram name="PÃ¡gina-1" id="JyZzpQffdHG1UAHrtDDV">
    <mxGraphModel dx="1050" dy="629" grid="1" gridSize="10" guides="1" tooltips="1" connect="1" arrows="1" fold="1" page="1" pageScale="1" pageWidth="827" pageHeight="1169" math="0" shadow="0">
      <root>
        <mxCell id="0" />
        <mxCell id="1" parent="0" />
        <mxCell id="fhS_L0i97eXS0MJJRt2M-8" value="" style="rounded=0;whiteSpace=wrap;html=1;" vertex="1" parent="1">
          <mxGeometry x="240" y="35" width="190" height="365" as="geometry" />
        </mxCell>
        <mxCell id="fhS_L0i97eXS0MJJRt2M-1" value="Usuario" style="shape=umlActor;verticalLabelPosition=bottom;verticalAlign=top;html=1;outlineConnect=0;" vertex="1" parent="1">
          <mxGeometry x="110" y="160" width="70" height="90" as="geometry" />
        </mxCell>
        <mxCell id="fhS_L0i97eXS0MJJRt2M-2" value="" style="ellipse;whiteSpace=wrap;html=1;" vertex="1" parent="1">
          <mxGeometry x="280" y="40" width="120" height="80" as="geometry" />
        </mxCell>
        <mxCell id="fhS_L0i97eXS0MJJRt2M-3" value="" style="ellipse;whiteSpace=wrap;html=1;" vertex="1" parent="1">
          <mxGeometry x="280" y="165" width="120" height="80" as="geometry" />
        </mxCell>
        <mxCell id="fhS_L0i97eXS0MJJRt2M-4" value="" style="ellipse;whiteSpace=wrap;html=1;" vertex="1" parent="1">
          <mxGeometry x="280" y="290" width="120" height="80" as="geometry" />
        </mxCell>
        <mxCell id="fhS_L0i97eXS0MJJRt2M-11" style="edgeStyle=orthogonalEdgeStyle;rounded=0;orthogonalLoop=1;jettySize=auto;html=1;endArrow=none;endFill=0;" edge="1" parent="1" source="fhS_L0i97eXS0MJJRt2M-5">
          <mxGeometry relative="1" as="geometry">
            <mxPoint x="140" y="140" as="targetPoint" />
          </mxGeometry>
        </mxCell>
        <mxCell id="fhS_L0i97eXS0MJJRt2M-5" value="Iniciar partida&amp;nbsp;" style="text;html=1;strokeColor=none;fillColor=none;align=center;verticalAlign=middle;whiteSpace=wrap;rounded=0;" vertex="1" parent="1">
          <mxGeometry x="295" y="65" width="90" height="30" as="geometry" />
        </mxCell>
        <mxCell id="fhS_L0i97eXS0MJJRt2M-10" style="edgeStyle=orthogonalEdgeStyle;rounded=0;orthogonalLoop=1;jettySize=auto;html=1;endArrow=none;endFill=0;" edge="1" parent="1" source="fhS_L0i97eXS0MJJRt2M-6" target="fhS_L0i97eXS0MJJRt2M-1">
          <mxGeometry relative="1" as="geometry" />
        </mxCell>
        <mxCell id="fhS_L0i97eXS0MJJRt2M-6" value="Descubrir casilla" style="text;html=1;strokeColor=none;fillColor=none;align=center;verticalAlign=middle;whiteSpace=wrap;rounded=0;" vertex="1" parent="1">
          <mxGeometry x="285" y="190" width="110" height="30" as="geometry" />
        </mxCell>
        <mxCell id="fhS_L0i97eXS0MJJRt2M-9" style="edgeStyle=orthogonalEdgeStyle;rounded=0;orthogonalLoop=1;jettySize=auto;html=1;endArrow=none;endFill=0;" edge="1" parent="1" source="fhS_L0i97eXS0MJJRt2M-7">
          <mxGeometry relative="1" as="geometry">
            <mxPoint x="140" y="300" as="targetPoint" />
          </mxGeometry>
        </mxCell>
        <mxCell id="fhS_L0i97eXS0MJJRt2M-7" value="Marcar casilla" style="text;html=1;strokeColor=none;fillColor=none;align=center;verticalAlign=middle;whiteSpace=wrap;rounded=0;" vertex="1" parent="1">
          <mxGeometry x="287.5" y="317.5" width="105" height="25" as="geometry" />
        </mxCell>
      </root>
    </mxGraphModel>
  </diagram>
</mxfile>
